<svg xmlns="http://www.w3.org/2000/svg" viewBox="0 0 47.625 47.625">
  <path d="M0 0h47.625v47.625H0z" fill="#808080"/>
  <path d="M23.813 10.874c-2.877 0-4.87 1.845-5.711 3.114-1.096 1.656-1.47 4.008-1.045 6.538.286 1.694.637 2.51 1.832 4.275 2.14 3.157 1.934 4.397-.976 5.87-2.125 1.078-2.94 2.04-2.94 3.475 0 .841.207 1.375.736 1.904.708.708.873.733 4.42.682h7.369c3.545.05 3.71.025 4.419-.682.53-.53.735-1.063.735-1.904 0-1.434-.814-2.397-2.94-3.474-2.91-1.474-3.115-2.714-.975-5.871 1.195-1.763 1.545-2.58 1.83-4.275.428-2.53.052-4.882-1.044-6.538-.84-1.268-2.834-3.114-5.71-3.114z" fill="none" stroke="#565656" stroke-width="1.133"/>
</svg>